<svg width="40" height="40" viewBox="0 0 40 40" fill="none" xmlns="http://www.w3.org/2000/svg">
<g clip-path="url(#clip0)">
<g filter="url(#filter0_d)">
<circle r="20" transform="matrix(-1 0 0 1 20 20)" fill="white"/>
</g>
<path d="M20 39.2C9.39614 39.2 0.800011 30.6039 0.800011 20C0.800011 9.39612 9.39614 0.799988 20 0.799988C30.6039 0.799988 39.2 9.39612 39.2 20C39.2 30.6039 30.6039 39.2 20 39.2Z" stroke="white" stroke-width="2" stroke-miterlimit="10" stroke-linecap="round"/>
<path d="M16.0536 28.4224C16.1704 27.1328 16.1256 26.2328 16.1256 25.0544C15.5416 24.748 14.4952 22.7944 14.3184 21.144C13.8592 21.1064 13.1352 20.6584 12.9232 18.8896C12.8088 17.94 13.2632 17.4056 13.54 17.2376C12.7928 14.9904 11.2408 8.03841 16.4104 7.32001C16.9424 6.38561 18.3048 5.91281 20.0752 5.91281C27.1584 6.04321 28.0128 11.2616 26.46 17.2376C26.736 17.4056 27.1904 17.94 27.0768 18.8896C26.864 20.6584 26.1408 21.1064 25.6816 21.144C25.5056 22.7936 24.4176 24.748 23.832 25.0544C23.832 26.2328 23.788 27.1328 23.9048 28.4224C24.9136 31.1344 30.0944 31.3464 33.0832 33.9616C29.9584 37.108 24.8944 39.3584 19.5504 39.3584C14.2064 39.3584 7.92479 35.1392 6.87919 33.988C9.84959 31.3488 15.0424 31.144 16.0536 28.4224Z" fill="black"/>
</g>
<defs>
<filter id="filter0_d" x="-4" y="0" width="48" height="48" filterUnits="userSpaceOnUse" color-interpolation-filters="sRGB">
<feFlood flood-opacity="0" result="BackgroundImageFix"/>
<feColorMatrix in="SourceAlpha" type="matrix" values="0 0 0 0 0 0 0 0 0 0 0 0 0 0 0 0 0 0 127 0"/>
<feOffset dy="4"/>
<feGaussianBlur stdDeviation="2"/>
<feColorMatrix type="matrix" values="0 0 0 0 0 0 0 0 0 0 0 0 0 0 0 0 0 0 0.25 0"/>
<feBlend mode="normal" in2="BackgroundImageFix" result="effect1_dropShadow"/>
<feBlend mode="normal" in="SourceGraphic" in2="effect1_dropShadow" result="shape"/>
</filter>
<clipPath id="clip0">
<rect width="40" height="40" fill="white" transform="matrix(-1 0 0 1 40 0)"/>
</clipPath>
</defs>
</svg>
